<svg width="50" height="81" viewBox="0 0 50 81" fill="none" xmlns="http://www.w3.org/2000/svg">
<g id="Group">
<path id="Vector" d="M21.3577 33.578C23.157 33.5821 24.9562 33.5944 26.7575 33.5862C30.2895 33.5718 33.8194 33.4939 37.3473 33.5493C38.5343 33.5677 39.7172 33.9101 41.0246 34.1274C40.9022 32.5427 40.8129 31.0728 40.6718 29.6111C40.456 27.4073 40.0907 25.1461 40.1488 22.934C40.2132 20.5088 40.7507 18.098 40.8793 15.6727C41.2674 8.33556 37.7997 1.33664 29.9471 0.110707C25.9627 -0.508412 22.7793 1.5191 21.7686 5.37117C20.8701 8.80297 21.6545 11.9498 23.545 14.8958C26.0851 18.8544 25.6285 22.9915 23.7442 26.9214C22.3103 29.9125 19.4091 31.6058 16.4789 33.086C16.1801 33.2377 15.8895 33.4037 15.5948 33.5616C15.6322 33.6948 15.6675 33.826 15.7069 33.9572C17.5871 33.8322 19.4714 33.7051 21.3536 33.58L21.3577 33.578Z" fill="#DD942C"/>
<path id="Vector_2" d="M45.312 47.9981H36.2038C36.1582 47.9981 36.1125 48.0022 36.069 48.0043C35.3758 48.0043 34.6806 48.0043 33.9875 48.0084C33.5164 48.0084 33.0495 48.0699 32.5784 48.1006C32.1364 48.0945 31.6923 48.0863 31.2524 48.0842C27.5128 48.0699 23.7712 48.0432 20.0296 48.0555C19.3448 48.0555 19.0439 47.8936 19.075 47.1576C19.1082 46.3847 19.6187 46.5323 20.0732 46.5323C23.9455 46.5323 27.8158 46.5405 31.6882 46.5323C31.7255 46.5344 31.7608 46.5385 31.7982 46.5385H41.091C43.6746 46.5385 45.7706 44.4679 45.7706 41.9156V39.3633C45.7706 36.8109 43.6746 34.7404 41.091 34.7404H40.9312C40.6033 34.7178 40.2734 34.6912 39.9455 34.6891C31.4329 34.6481 22.9225 34.6891 14.412 34.5374C11.4589 34.4821 8.82963 35.1975 6.34974 36.6326C3.41953 38.328 1.68258 40.6978 2.1163 44.2445C2.24289 45.2777 2.31967 46.3191 2.36118 47.3585C2.37363 47.6578 2.27608 48.0473 2.07894 48.2544C1.15339 49.2302 0.881541 50.4213 0.827585 51.6841C0.786081 52.6579 0.916814 53.646 0.796452 54.6075C0.522523 56.8113 1.56428 58.3243 3.18503 59.6425C3.51499 59.911 3.76194 60.4543 3.7827 60.8848C3.85325 62.3608 3.73289 63.8471 3.83873 65.3191C3.89684 66.0899 4.03795 67.1067 4.55053 67.5414C5.78736 68.5869 5.73341 69.8087 5.59022 71.1474C5.56324 71.3791 5.58399 71.6189 5.59022 71.8526C5.7002 76.7277 8.91056 79.9504 13.8558 79.9811C15.1383 79.9893 16.4229 79.9914 17.7053 79.9955C17.7946 80.0139 17.8859 80.0221 17.9813 80.0221H40.5867C42.5001 80.0221 44.0523 78.4887 44.0523 76.5985V74.7801C44.0523 72.89 42.5001 71.3565 40.5867 71.3565H30.3559C29.5023 71.3565 29.117 70.9253 29.2 70.0629C29.2124 69.944 37.3203 70.0732 38.0674 70.0711C38.2936 70.0711 38.5198 70.0711 38.746 70.0691H44.9447C46.194 70.0691 47.2876 69.4213 47.906 68.4475C47.9143 68.4331 47.9247 68.4188 47.933 68.4044C48.2547 67.8817 48.4456 67.2687 48.4456 66.6106V65.7414C48.4456 65.7414 48.4456 65.7311 48.4456 65.7271V64.6897C48.4456 62.7811 46.8788 61.2333 44.9467 61.2333H38.0134C38.0134 61.2333 38.0031 61.2333 37.9989 61.2333C34.1618 61.2333 30.3247 61.2374 26.4897 61.2415C24.4934 61.2415 24.9396 61.2702 24.8503 59.7122C25.2508 59.6753 25.6514 59.6076 26.054 59.6056C29.9657 59.6015 33.8796 59.6117 37.7914 59.6056H45.3224C47.8604 59.6056 49.919 57.5719 49.919 55.0647V52.5411C49.919 50.0338 47.8604 48.0002 45.3224 48.0002L45.312 47.9981Z" fill="#DD942C"/>
</g>
</svg>
